<svg width="390" height="321" viewBox="0 0 390 321" fill="none" xmlns="http://www.w3.org/2000/svg">
<mask id="mask0_1_1245" style="mask-type:luminance" maskUnits="userSpaceOnUse" x="-10" y="0" width="411" height="321">
<path d="M401 0H-10V321H401V0Z" fill="white"/>
</mask>
<g mask="url(#mask0_1_1245)">
<path d="M306.763 243.569L320.967 238.573L325.26 243.442L328.015 244.346L330.407 248.158L336.113 249.359L340 247.617L341.924 240.904L344.06 234.612L343.465 229.285L337.121 221.112L335.06 214.237L333.59 214.171L332.246 209.556L331.001 217.464L330.06 218.78L325.008 215.375L325.857 213.128L326.423 211.885L325.722 210.962L323.844 211.181L321.425 210.014L318.839 213.596L318.806 215.417L317.065 215.511L316.194 213.593L312.929 216.223L310.8 218.574L310.446 220.24L308.833 221.978L304.8 223.3L302.621 225.618L302.051 225.484L301.682 229.458L302.027 230.592L302.798 234.455L303.96 238.27L303.86 241.314L302.848 241.846L303.381 243.224L304.237 242.865L305.251 243.685L306.763 243.569Z" fill="#E4A9A9" fill-opacity="0.32"/>
<path d="M334.921 252.126L336.674 252.89L337.883 252.353L338.467 252.632L338.23 254.72V256.132H337.829L337.614 255.629L337.257 256.324L336.873 256.768L336 256.358L335.15 255.225L335.045 253.683L334.545 252.866L334.921 252.126Z" fill="#E4A9A9" fill-opacity="0.32"/>
<path d="M321.145 198.494L323.041 198.214L321.145 197.741L320.482 197.151L319.464 196.066L320.836 196.052L321.515 195.373L323.379 196.066L323.769 197.731L324.148 199.397L324.877 199.421L327.206 197.021L335.671 201.247L336.302 202.903L337.618 203.566L337.727 204.209L337.212 204.303L337.265 205.077L340.188 208.666L340.951 208.84L340.669 209.641L339.815 209.111L337.726 208.623L335.739 205.88L334.193 205.709L333.217 206.555L333.29 207.111L332.335 207.76L330.728 207.634L329.675 205.84L327.277 206.238L327.562 205.044L328.511 204.616L327.264 202.063L323.099 200.11L323.17 199.335L322.691 200.51L322.071 200.442L321.665 199.279L321.145 199.056V198.494Z" fill="#E4A9A9" fill-opacity="0.32"/>
<path d="M311.486 207.653C311.639 207.79 313.676 206.132 313.676 206.132L315.478 205.785L315.62 205.923L313.553 207.309C313.553 207.309 312.312 208.502 312.298 208.494C312.285 208.486 311.623 208.774 311.623 208.774L311.486 207.653Z" fill="#E4A9A9" fill-opacity="0.32"/>
<path d="M308.748 193.281L312.091 193.756L313.18 192.513L313.274 193.608L311.924 194.615L309.308 194.369L308.439 194.26L307.848 195.295L308.536 196.627C308.536 196.627 309.522 196.038 309.656 196.066C309.79 196.094 310.762 195.859 310.762 195.859L311.298 195.6L311.364 195.975L310.734 196.627L309.589 197.546L310.36 198.967L310.355 199.584L310.952 200.483L309.752 201.263L308.873 199.434L308.607 199.407L308.943 198.638L308.43 198.516L308.18 200.063L308.217 201.263L307.847 202.476L307.232 202.401L307.066 201.84L307.469 200.831L307.398 199.617L306.653 199.276V198.321L307.042 197.396L307.751 194.39L308.748 193.281Z" fill="#E4A9A9" fill-opacity="0.32"/>
<path d="M293.132 202.791L293.983 202.939L294.295 202.636L295.29 203.172L295.832 203.758L296.879 203.824L297.654 204.043L298.062 203.438L298.921 203.775L299.772 204.043L300.302 204.813L300.786 205.184C300.786 205.184 301.227 204.877 301.327 204.942C301.427 205.006 302.091 205.244 302.091 205.244L301.979 206.185L300.773 206.009L298.888 205.885L296.974 205.184H295.22L294.289 204.767L293.645 204.832L293.324 204.089L292.59 203.88L293.132 202.791Z" fill="#E4A9A9" fill-opacity="0.32"/>
<path d="M300.12 204.069L300.258 204.493L301.416 204.351L301.664 203.963L301.002 203.888L300.391 203.92L300.12 204.069Z" fill="#E4A9A9" fill-opacity="0.32"/>
<path d="M302.483 205.574C302.483 205.574 302.905 205.629 302.942 205.645C302.978 205.662 303.418 205.964 303.418 205.964L303.159 206.252C303.159 206.252 303.021 206.512 302.994 206.558C302.968 206.604 302.848 206.658 302.848 206.658L302.567 206.374L302.335 206.185L302.315 206.009L302.483 205.574Z" fill="#E4A9A9" fill-opacity="0.32"/>
<path d="M296.924 192.513L298.507 192.334L301.884 189.381L302.949 188.715L304.426 185.761L305.882 187.159L307.053 187.829L306.157 188.35L305.385 189.647L305.047 190.402L306.752 193.644L305.615 193.912L305.207 195.421L304.104 197.086L304.017 198.664L302.488 200.307L302.092 199.282C302.092 199.282 301.377 199.162 300.893 199.18C300.408 199.198 297.671 198.597 297.671 198.597L296.305 194.579L296.924 192.513Z" fill="#E4A9A9" fill-opacity="0.32"/>
<path d="M282.175 187.524L284.84 188.691C284.84 188.691 287.169 191.71 287.4 192.001C287.632 192.291 291.597 197.418 291.879 197.775C292.161 198.132 292.946 199.776 292.946 199.776L293.132 202.791L291.757 202.237L290.046 201.245L286.691 195.373L284.49 192.025L283.215 190.403L281.767 188.316L282.175 187.524Z" fill="#E4A9A9" fill-opacity="0.32"/>
<path d="M287.1 187.113C287.1 187.113 287.553 189.521 287.724 190.006C287.895 190.49 289.9 192.847 289.9 192.847L291.044 193.409L291.059 192.249L290.288 190.261L290.316 188.364L288.061 185.787L287.282 185.335L286.586 182.849L285.941 182.145L286.885 177.097L287.531 176.91L291.772 181.525L292.99 182.804L296.345 179.455L296.427 177.178L296.078 174.63L293.196 170.512L284.235 173.245L285.45 179.921L284.996 183.1L286.175 185.593L287.1 187.113Z" fill="#E4A9A9" fill-opacity="0.32"/>
<path d="M293.197 170.513V168.236C293.197 168.236 294.836 165.854 295.449 165.979C296.063 166.103 297.05 166.642 297.974 166.287C298.898 165.931 305.791 162.51 305.791 162.51L309.79 154.361L309.329 150.853L307.213 146.679L310.536 143.436L308.458 142.591L306.822 143.304L306.626 140.638L309.684 137.953L309.543 140.172L312.427 139.657L313.505 140.282L313.592 142.77L314.705 142.96L314.767 146.525L314.41 148.008L318.18 146.368L317.344 142.682L315.955 139.838C315.955 139.838 317.679 138.648 317.804 138.105C317.93 137.563 320.365 134.02 320.365 134.02L321.964 135.13L328.788 126.159L329.871 120.495L330.084 116.899L328.022 115.301L326.958 116.521L324.202 114.547L330.902 106.838L334.705 105.773L342.933 106.263L346.789 101.667C346.789 101.667 354.806 99.128 354.52 99.9092C354.233 100.69 347.34 108.97 346.789 109.792C346.238 110.614 345.421 114.523 345.421 114.523L346.417 120.896L351.747 114.877L353.647 111.346L352.387 107.33L355.46 104.576L359.851 103.332L367.864 99.3106L370.724 94.5164L372.039 91.4268C372.039 91.4268 374.812 92.3629 375.346 93.4724C375.881 94.5818 378.792 95.1829 378.792 95.1829L381.6 92.1836L377.939 89.6742L361.129 82.8108L361.165 85.6757L350.43 83.7204L349.31 81.1901C349.31 81.1901 343.961 81.7679 342.861 81.1901C341.76 80.6123 328.84 77.1271 328.84 77.1271L328.165 79.5253L319.102 80.9915L316.81 77.9272L315.832 74.3524L310.733 75.8623L293.886 74.862L300.961 69.9547L300.088 66.7134L295.077 66.0012L292.057 63.5139L285.766 66.7339L272.678 70.3379L272.509 72.5982L265.249 73.5957L268.085 77.9035C268.085 77.9035 262.968 75.6396 262.824 76.9714C262.681 78.3031 259.164 78.4821 259.164 78.4821C259.164 78.4821 260.851 84.8339 261.966 85.4887C263.654 86.4802 265.249 87.3421 265.249 87.3421L258.469 90.5413C258.469 90.5413 253.564 90.4738 254.898 90.4076C256.232 90.3414 257.954 84.4992 257.954 84.4992L257.529 76.3743L254.135 76.5288L251.469 81.1484L253.511 85.455L243.295 85.5012L232.221 88.4347L240.651 158.298C240.651 158.298 245.953 161.368 246.747 161.178C247.541 160.988 251.237 160.617 251.237 160.617L253.54 163.598L257.465 165.359L259.75 176.392L262.303 183.761L263.498 184.031L264.94 182.826L265.349 181.069L265.996 176.971L266.328 173.846L274.13 166.168L278.171 165.36C278.171 165.36 279.262 168.027 280.108 169.994C280.954 171.962 280.969 173.659 280.969 173.659L282.395 173.452L283.704 172.396L284.235 173.246L293.197 170.513Z" fill="#E4A9A9" fill-opacity="0.32"/>
<path d="M319.869 147.66C320.192 147.299 321.792 145.951 322.043 146.021C322.293 146.09 324.131 145.957 324.131 145.957L327.276 143.46C327.276 143.46 328.824 140.963 328.886 140.372C328.949 139.781 328.81 138.119 328.931 138.03C329.053 137.941 329.924 137.13 329.924 137.13L331.027 139.14L330.531 141.626L330.022 142.758L329.597 144.913C329.597 144.913 329.764 146.414 329.409 146.679C329.053 146.945 327.117 147.243 327.117 147.243L325.623 147.498L324.754 148.688L323.849 148.345L323.936 147.324C323.936 147.324 323.342 147.502 322.551 147.59C321.76 147.678 320.764 148.577 320.569 148.489C320.373 148.402 319.557 148.355 319.557 148.355L319.869 147.66Z" fill="#E4A9A9" fill-opacity="0.32"/>
<path d="M320.826 149.098L321.696 148.354L323.063 147.931L323.305 148.82L323.077 149.471H322.499L322.133 149.18L321.644 149.976L321.005 149.898L320.826 149.098Z" fill="#E4A9A9" fill-opacity="0.32"/>
<path d="M317.987 149.373L318.935 148.688L320.525 149.551C320.525 149.551 320.217 150.528 320.169 150.765C320.12 151.002 319.243 152.542 319.243 152.542L318.746 152.422L318.63 151.622L319.008 150.528L318.796 149.876L318.226 150.408L317.987 149.373Z" fill="#E4A9A9" fill-opacity="0.32"/>
<path d="M329.391 136.778L330.058 136.475L329.461 135.719L329.711 135.386C329.711 135.386 330.332 135.197 330.431 135.208C330.53 135.218 332.189 135.863 332.189 135.863L333.336 134.533C333.336 134.533 334.317 134.624 334.404 134.506C334.491 134.388 334.861 133.773 334.861 133.773L334.594 133.27L334.861 132.427L334.126 132.942L333.035 132.533L331.694 131.34L331.017 130.635L330.617 130.9L330.825 131.584C330.825 131.584 330.677 132.62 330.681 132.713C330.686 132.807 330.334 133.398 330.334 133.398L330.35 134.111L329.435 134.032L329.32 134.633L328.725 135.387L329.036 136.061L329.062 136.839L329.391 136.778Z" fill="#E4A9A9" fill-opacity="0.32"/>
<path d="M331.169 116.855L331.685 116.277L331.577 115.301C331.577 115.301 332.127 115.232 332.145 115.544C332.164 115.857 332.804 120.852 332.804 120.852L333.762 124.869L332.287 124.339L331.862 126.025L331.969 127.626L332.733 128.802L332.556 129.535L331.578 128.76L331.134 129.647L330.779 128.801L331.107 127.24L331.117 125.625L330.902 124.606L331.205 122.518L331.222 120.763L330.884 120.031L330.831 118.519L331.169 116.855Z" fill="#E4A9A9" fill-opacity="0.32"/>
<path d="M232.221 88.4343L223.691 94.0032L219.963 94.748L216.185 90.1119L220.587 90.9758L224.45 90.7944L224.436 88.5378L212.674 82.9279L208.879 80.5682L197.515 86.406L191.684 96.7779L186.899 100.691L188.074 107.832L192.148 106.509L195.081 112.966L199.024 111.329L199.919 107.045L202.459 106.176L201.237 103.256L199.885 103.215L200.316 99.5686L204.141 95.723L205.351 92.7208L207.935 93.1345L207.107 95.3675L203.895 98.7235L206.081 104.663L210.934 103.546L212.442 104.602L210.123 105.47L206.66 106.052L207.107 109.074L206.56 110.212L204.64 109.115L203.528 111.6L203.313 114.062L193.027 115.242L191.551 113.379L192.396 111.246L192.117 109.115L189.929 111.411L190.622 116.008L187.461 116.94L183.057 122.723L179.36 123.478L179.642 125.222L176.974 125.013L176.809 126.543L179.691 129.009L179.725 133.728H171.396L171.956 143.641L178.067 144.47L181.645 141.201L181.878 138.281L184.891 136.17L185.738 133.728L188.072 134.454L191.221 132.776L195.992 137.434L198.492 140.931L197.741 143.085L200.63 139.295L198.956 137.29L196.108 134.33L194.534 131.699L195.114 130.271L198.211 133.5L201.622 136.233L202.269 139.731L203.611 141.159L204.704 144.019H205.831L206.675 142.712L206.013 140.372L205.351 138.882L206.693 138.034L209.393 138.281L211.413 137.743L211.217 135.893L211.695 133.479L213.302 130.147L215.025 128.802L216.632 131.823L219.216 131.368L218.488 129.38L221.817 127.829L221.37 129.836L221.437 131.989L224.237 134.391L225.346 136.317L222.927 137.619L218.687 136.441L216.102 136.212L209.111 139.896L212.308 144.782L216.25 145.321L219.282 144.079L218.42 149.232L217.423 152.429L217.905 156.809L220.74 161.859L224.283 168.772L226.354 174.344L227.15 177.986L232.185 176.536L237.752 172.768L242.041 169.62L244.511 164.923L241.644 162.688L240.832 160.161L238.001 162.399L234.803 161.114L232.221 156.288L232.798 153.908L234.224 154.365L237.388 158.381L239.21 158.981L240.651 158.297L232.221 88.4343Z" fill="#E4A9A9" fill-opacity="0.32"/>
<path d="M217.905 156.809L217.534 157.627H217.147L215.786 155.301L217.704 160.452L218.935 163.022L219.442 164.692L220.568 167.553L220.923 170.02L222.162 171.405L222.976 174.447L225.181 176.375L227.084 178.754L226.72 179.727L228.066 181.202L234.141 179.998L235.026 179.392L235.434 180.577L234.193 184.565L223.523 199.477L222.829 204.051L224.12 209.228L224.253 215.025L222.795 217.674L218.122 221.749L218.902 225.788L218.273 228.396L216.137 229.618L214.628 235.207L210.106 241.314L206.312 242.038L203.976 242.66L200.663 242.162L200.399 238.499L196.936 229.783L195.992 224.255L193.339 219.142L194.453 213.531L195.894 210.097L194.037 201.693L190.957 195.978L191.718 190.908L190.345 189.104L187.427 189.085L186.32 187.078L183.195 187.031L177.604 188.32L172.685 189.23L163.838 178.526L164.402 170.123L164.54 164.112L166.808 159.472L170.182 155.819L171.74 150.829L174.107 148.635L175.418 145.8L179.111 147.103L185.852 144.225L191.768 143.562L193.178 147.144L192.614 149.109L199.686 152.838L202.519 153.48L202.652 151.368L205.185 150.478L210.967 152.774L215.562 152.668L217.423 152.429L217.905 156.809Z" fill="#E4A9A9" fill-opacity="0.32"/>
<path d="M228.191 217.244L228.167 221.537L227.053 224.497L227.835 228.941L230.419 229.175L232.101 224.468L233.095 220.738L233.972 216.862L233.379 211.412L231.586 214.017L228.191 217.244Z" fill="#E4A9A9" fill-opacity="0.32"/>
<path d="M105.959 231.41L105.079 243.26L103.516 247.702L103.492 253.385L104.533 254.839L103.089 263.484L102.664 267.893L104.439 271.124L107.306 275.8L112.259 276.037L109.227 272.482L108.372 269.907L111.192 264.905L110.362 261.942L111.95 258.743L113.229 254.897L113.016 252.438L115.695 250.306L119.936 248.796L121.357 245.953L120.362 242.698L123.939 243.348L127.707 237.962L130.242 231.831L129.982 229.225L131.372 227.598L134.719 226.233L136.708 226.058L138.913 222.266L140.242 216.494L140.312 212.171L141.687 210.602L143.155 208.619L144.387 206.309L143.654 202.104L141.069 200.505L137.398 199.082L134.294 198.165L132.255 196.716L130.596 196.152L128.939 195.649L127.991 192.66L124.983 188.069L121.142 187.506L115.196 181.94L111.571 181.377L109.012 180.757L106.214 178.804L102.52 180.727L99.9392 184.541L99.6531 189.356L97.9838 192.984L95.8273 196.605L96.1098 198.45C96.1098 198.45 95.3395 201.703 95.4818 202C95.624 202.297 100.15 211.653 100.15 211.653L101.572 215.221L104.367 217.266L106.737 219.692C106.737 219.692 106.881 226.854 106.878 227.479C106.875 228.104 105.959 231.41 105.959 231.41Z" fill="#E4A9A9" fill-opacity="0.32"/>
<path d="M99.8446 186.136L100.166 184.206L98.1444 182.199L96.9573 182.099L95.8421 182.752L94.7449 182.85L93.3077 181.035L92.6912 179.88L92.81 178.104L93.3048 175.346L92.715 174.346L91.7877 173.163L90.1594 173.55L87.7679 173.856L87.6141 173.163L88.1156 171.763L87.9002 170.912L88.071 169.604L88.6169 169.338L88.7357 167.799L89.6511 166.252L89.2327 165.727L87.2888 165.816L85.9849 166.262L85.4663 167.738L84.9811 169.982L82.5508 170.138C82.5508 170.138 81.6751 170.794 81.4378 170.466C81.2006 170.138 79.6616 168.628 79.6616 168.628L78.3557 165.923L77.9312 164.04L78.198 161.936L78.5955 159.752L78.1206 157.873L68.0261 162.367L69.6617 164.765L69.9337 166.835L70.1479 168.761C70.1479 168.761 72.8698 170.535 73.1552 170.715C73.441 170.894 77.473 173.177 77.7584 173.316C78.0442 173.454 79.9101 173.72 79.9101 173.72L81.2584 173.112L83 174.355L83.8127 175.586C83.8127 175.586 85.6519 176.282 86.0924 176.547C86.533 176.813 88.5944 177.155 88.5944 177.155L90.5794 180.065L90.5717 181.314L91.5555 181.908L92.2173 182.143L92.8691 183.27L93.8529 183.683L94.9421 184.112L95.7615 184.896L96.5334 184.751L96.3173 183.923L97.0632 182.942L98.0824 183.046L99.8446 186.136Z" fill="#E4A9A9" fill-opacity="0.32"/>
<path d="M78.1203 157.874L78.8543 156.364L80.8056 155.431L82.3051 154.137C82.3051 154.137 84.4866 154.43 84.5855 154.494C84.6844 154.558 86.1977 154.918 86.3406 154.999C86.4835 155.08 87.091 155.046 87.091 155.046L86.0934 153.475C86.0934 153.475 87.0168 153.361 87.2243 153.367C87.4317 153.372 89.5882 153.316 89.5882 153.316L90.8947 153.956L91.2938 154.41L92.5968 153.994C92.5968 153.994 93.6937 155.308 93.7588 155.449C93.824 155.59 93.7582 157.312 93.7582 157.312L94.6541 158.986L94.9366 159.753L95.4166 160.036L95.6751 160.606C95.6751 160.606 96.037 161.006 96.1009 160.926C96.1645 160.847 96.6933 159.623 96.6933 159.623L95.9066 156.047L95.2513 152.126L99.7704 147.137L101.237 144.677L100.536 142.925L100.819 139.991L101.103 141.975L102.029 141.432L103.227 138.314L106.268 136.348L106.671 133.626L110.177 131.285L113.591 130.284L111.292 133.159L116.174 130.73L118.54 130.013L113.108 128.181L112.027 123.802L112.592 122.29L119.393 120.397L122.072 119.301L115.675 110.569L112.973 103.845L110.437 107.272L107.856 106.659L107.407 103.667L105.628 101.257L99.2316 99.2267L98.8276 105.977L97.9539 107.695L99.824 108.288L100.204 111.898L97.3362 113.855L98.1183 118.975L95.1649 118.531L94.113 114.655L92.2882 113.114L83.4277 108.939L81.1312 105.414C81.1312 105.414 82.3623 100.325 82.7415 100.146C83.1207 99.9666 86.0587 96.8593 86.0587 96.8593L88.8044 94.6966L89.8463 90.7603L93.4262 90.8486L94.9668 88.2425L94.0899 86.4381L95.0606 84.6296L91.5054 83.2092L90.7717 85.7848L89.4218 88.8945L88.1426 85.4309L85.7732 84.5125L83.5233 83.1498L81.6273 78.0572L83.6171 76.1925L85.7013 73.527L80.9633 72.7278L80.3952 76.7262L79.0916 81.0465L82.1487 85.0148L80.3233 88.4198L75.112 87.8288L68.5713 85.4911C68.5713 85.4911 64.8042 87.0885 63.9517 87.5612C63.0992 88.0338 54.3552 84.1277 54.3552 84.1277L48.7396 84.0101L45.8022 81.2543L39.7612 84.3648L18.1743 80.8406L11.0592 81.2788L7.95071 84.4531L5.44682 85.5517L7.16949 87.6799L9.61976 89.7243L11.3996 90.5388L8.25768 91.5893L5.28628 91.8429L4.12296 93.0707L5.35788 94.2705L9.88338 94.9811L11.3996 94.6553L11.433 96.6362L7.26518 98.5642L5.95897 101.316L7.82067 104.231L9.72925 103.669L10.9963 106.737L15.5555 106.646L7.05294 113.817L7.65563 114.74L19.1823 107.093L20.0104 104.439C20.0104 104.439 21.6136 105.761 21.8011 105.7C21.9886 105.639 24.7979 103.685 24.7979 103.685L25.2471 101.984C25.2471 101.984 30.968 104.042 32.1175 104.456C33.2674 104.87 39.0265 109.565 39.0265 109.565L45.3161 117.276L50.2808 128.79L50.1373 138.86C50.1373 138.86 52.9899 145.079 53.3238 145.788C53.6578 146.497 56.8796 148.791 56.8796 148.791L58.8081 153.34C58.8081 153.34 60.8573 158.165 61.6642 158.743C62.4708 159.321 65.3729 163.925 65.3729 163.925L62.8016 157.709L60.6563 154.236L60.7405 151.742L68.0257 162.371L78.1203 157.874Z" fill="#E4A9A9" fill-opacity="0.32"/>
<path d="M109.765 67.4914C109.765 67.4914 114.767 66.6115 115.252 66.6893C115.737 66.7672 119.966 69.3661 119.966 69.3661C119.966 69.3661 123.834 75.8065 123.834 76.7607C123.834 77.7149 125.098 89.5024 125.098 89.5024L129.07 99.5581L133.233 102.871L135.614 103.438L138.704 94.2336L143.38 91.6463L147.53 87.4597L156.841 82.4091L159.925 73.2654L158.858 65.6321L159.227 60.3913L164.823 53.6844L168.47 51.2938L162.034 51.5305L158.48 52.1007L158.168 48.4718L151.25 45.1061L141.061 45.2734L130.148 46.3696L115.334 52.4361L109.765 55.7922L105.399 60.7717L109.765 67.4914Z" fill="#E4A9A9" fill-opacity="0.32"/>
<path d="M50.3499 71.6901L48.8565 77.0199L51.8787 80.1746L54.4738 77.684L57.3177 81.461L58.8644 84.5935C58.8644 84.5935 62.1235 84.6449 63.648 84.5935C65.1726 84.5422 69.9383 83.5747 70.5089 83.5495C71.0794 83.5242 75.3387 83.2389 75.3387 83.2389L71.283 80.1573L70.0211 76.8434L70.1123 73.4444L67.0722 74.8676L67.5541 78.5531L64.8171 76.1103L60.658 74.5751L57.3511 72.4003L52.9087 71.7792L50.3499 71.6901Z" fill="#E4A9A9" fill-opacity="0.32"/>
<path d="M51.9159 66.5605C52.698 66.4265 55.5924 68.3393 56.4279 68.7602C57.2634 69.1811 62.5248 69.9146 62.5248 69.9146L67.5355 70.3359L68.0261 66.5537L63.4675 65.74L63.7318 61.8763L60.57 61.9839L55.8952 63.8946L51.9159 66.5605Z" fill="#E4A9A9" fill-opacity="0.32"/>
<path d="M69.2826 63.4296C70.539 63.6069 73.7018 68.6466 74.3237 68.9367C74.9457 69.2268 80.2046 69.0487 80.2046 69.0487L76.8995 65.9594L72.699 64.8287L69.2826 63.4296Z" fill="#E4A9A9" fill-opacity="0.32"/>
<path d="M72.9562 75.4671C73.4359 75.2436 76.153 78.8633 76.153 78.8633L78.6774 78.1535L80.3953 76.725L77.719 72.6892L72.9562 75.4671Z" fill="#E4A9A9" fill-opacity="0.32"/>
<path d="M69.2668 57.1649L69.5269 61.4827L76.4378 62.7848L74.2518 59.2301L69.2668 57.1649Z" fill="#E4A9A9" fill-opacity="0.32"/>
<path d="M79.3177 66.0052L82.2669 67.0039L84.2384 70.9587L95.381 71.6673L97.1576 69.6698L92.0038 68.4031L88.0241 68.9131L84.6295 65.7404L80.3477 63.8517L79.3177 66.0052Z" fill="#E4A9A9" fill-opacity="0.32"/>
<path d="M79.7971 54.3031C79.7971 54.3031 93.9538 48.5448 94.3272 48.2912C94.7006 48.0376 101.897 46.7408 101.897 46.7408L109.67 47.1003L115.071 48.5075L116.634 49.129L104.436 57.2575L100.68 62.353L98.0708 64.0511L98.2998 66.4939L90.319 66.7222L87.5258 66.3274L86.5067 65.2922L88.2579 63.3762L86.5067 62.3655L85.0209 61.7852L80.0809 57.4333L79.3344 55.3243L79.7971 54.3031Z" fill="#E4A9A9" fill-opacity="0.32"/>
<path d="M77.3616 60.1425L78.3749 62.3197L80.4723 62.3839L80.8615 61.0534L78.8543 60.1634L77.3616 60.1425Z" fill="#E4A9A9" fill-opacity="0.32"/>
<path d="M88.2376 73.3308L86.2812 77.0644L87.0297 81.3129C87.0297 81.3129 91.5841 82.5391 91.8554 82.4801C92.127 82.4211 98.363 82.1459 98.7323 82.3654C99.1015 82.5852 102.394 86.3369 102.983 86.9404C103.572 87.5443 105.028 89.0723 105.028 89.0723C105.028 89.0723 102.719 91.6808 102.651 92.0989C102.583 92.517 101.698 94.0887 101.698 94.0887L98.8607 93.281L98.6501 94.8587L100.866 95.4951L102.821 95.0356L104.813 96.696L109.479 99.9826L111.174 100.455L110.059 98.4723L108.472 96.7108L109.101 96.7213L110.901 97.9094L112.442 98.7079L112.169 94.8896L110.225 93.0687L109.701 91.3349L110.297 90.6552L112.536 93.2449L113.946 94.1035L116.504 90.6119L112.475 87.5595L110.413 86.5845L108.936 85.7696L109.657 84.7183L110.121 83.2951L105.937 79.6252L103.661 79.4916L102.561 77.5536L100.693 75.9381L98.53 73.9415L95.7625 73.5571L92.0593 74.2713L89.9542 73.5571L88.2376 73.3308Z" fill="#E4A9A9" fill-opacity="0.32"/>
<path d="M90.0612 92.1771L89.9074 95.2752L89.1959 96.4813L90.2921 96.7209L91.3806 96.0813L90.7952 97.5832H91.8651C91.8651 97.5832 93.0114 95.6471 93.3197 95.985C93.6276 96.3228 95.4887 97.3167 95.4887 97.3167L96.7088 96.7209L94.7431 95.274L93.2493 94.0281L92.1814 93.6284L90.0612 92.1771Z" fill="#E4A9A9" fill-opacity="0.32"/>
<path d="M99.3334 87.9054L100.979 89.0345L101.893 88.1237L101.22 86.6812L99.4557 86.8562L99.3334 87.9054Z" fill="#E4A9A9" fill-opacity="0.32"/>
<path d="M92.5746 99.3262L94.1641 97.9487L94.7433 99.0879L93.4172 100.351L92.5746 99.3262Z" fill="#E4A9A9" fill-opacity="0.32"/>
<path d="M76.101 84.9691L79.4224 86.4116L80.42 85.7696L79.6366 84.236L80.437 83.9038L79.8029 83.3557L78.6945 83.7714L77.6288 83.1944L76.101 84.9691Z" fill="#E4A9A9" fill-opacity="0.32"/>
<path d="M118.896 125.814L120.745 121.374L122.38 120.309L122.031 121.326L121.504 122.795C121.504 122.795 124.775 124.926 124.869 125.164C124.963 125.4 125.343 127.325 125.343 127.325L124.772 128.243L122.262 127.534L120.462 126.704L118.542 126.614L118.896 125.814Z" fill="#E4A9A9" fill-opacity="0.32"/>
<path d="M92.5027 164.898L95.5123 165.135L98.3527 166.585L101.128 168.065L102.738 167.799L101.387 166.497L98.592 165.016L96.1279 163.743L93.5675 163.686H91.9293L92.5027 164.898Z" fill="#E4A9A9" fill-opacity="0.32"/>
<path d="M99.2313 171.115L100.653 170.762L100.148 169.983L98.4735 170.258L99.2313 171.115Z" fill="#E4A9A9" fill-opacity="0.32"/>
<path d="M103.258 170.494C103.567 170.466 105.818 171.055 105.818 171.055L106.151 170.199L108.329 169.932L108.663 169.048L106.907 168.273L104.349 167.769L103.781 168.037L104.443 169.515L102.909 169.417L103.258 170.494Z" fill="#E4A9A9" fill-opacity="0.32"/>
<path d="M156.303 92.8516L159.873 97.0708C159.873 97.0708 160.975 97.7019 161.321 97.7577C161.667 97.8139 164.154 96.6153 164.154 96.6153L167.184 94.3623L165.933 92.0395L164.235 91.0408L161.398 91.962L159.455 93.1172L158.319 91.4882L157.181 91.1054L156.303 92.8516Z" fill="#E4A9A9" fill-opacity="0.32"/>
<path d="M172.053 115.497L170.834 115.571L170.977 116.99L171.876 117.42L170.764 119.226L171.581 120.294L172.943 119.714L173.761 118.99L174.602 118.945L174.81 115.884L175.705 115.2L174.803 113.664L173.559 113.512L172.491 113.96L172.053 115.497Z" fill="#E4A9A9" fill-opacity="0.32"/>
<path d="M176.265 107.238L175.058 110.838C175.058 110.838 175.891 112.692 176.171 113.031C176.452 113.37 177.678 114.691 177.678 114.691L178.236 116.224L177.002 117.488L176.168 119.552L178.131 120.294L175.962 122.419L182.936 120.997V119.713L183.524 118.48L181.925 117.301L180.201 114.547L178.593 112.117L179.577 109.284L177.491 108.574L178.007 107.419L176.265 107.238Z" fill="#E4A9A9" fill-opacity="0.32"/>
<path d="M190.005 138.39C190.084 138.632 190.447 140.819 190.447 140.819L191.766 140.895V137.295L190.005 138.39Z" fill="#E4A9A9" fill-opacity="0.32"/>
<path d="M239.989 76.7318L244.8 71.089L253.732 66.7339L253.401 65.3435L249.065 66.9144L243.519 68.1571L238.355 74.2561L235.512 78.7264L239.421 81.6889L242.09 81.3779L239.906 78.6502L239.989 76.7318Z" fill="#E4A9A9" fill-opacity="0.32"/>
<path d="M199.395 66.0289C199.626 65.4154 201.774 61.1625 201.774 61.1625L204.663 64.2485L207.577 63.0504L204.076 60.4511L202.069 59.0094L200.504 56.5L197.058 57.1268L193.005 57.5196C193.005 57.5196 193.486 60.4836 193.708 60.6409C193.93 60.7982 196.383 63.1503 196.383 63.1503L199.395 66.0289Z" fill="#E4A9A9" fill-opacity="0.32"/>
<path d="M203.188 57.5882L206.44 59.0524L208.821 57.9658L210.046 56.4775L207.08 55.2778L203.188 55.1398H200.22L203.188 57.5882Z" fill="#E4A9A9" fill-opacity="0.32"/>
<path d="M316.299 192.521L316.46 194.014L316.58 195.226L316.843 196.066L317.306 196.259L317.031 195.046V194.39L317.733 194.912L318.078 194.725L317.772 194.39L317.514 193.898L317.868 193.293V192.879L317.365 193.034L316.843 193.452V192.47V191.83L316.195 191.548L316.299 192.521Z" fill="#E4A9A9" fill-opacity="0.32"/>
<path d="M317.014 199.402L318.67 199.616L319.825 200.373L320.031 199.962L319.7 199.31L318.67 198.795H317.031L316.656 199.179L317.014 199.402Z" fill="#E4A9A9" fill-opacity="0.32"/>
<path d="M303.718 205.881L303.576 206.594L304.074 206.728C304.074 206.728 304.287 206.461 304.314 206.399C304.341 206.338 304.443 205.881 304.443 205.881L304.176 205.785L303.718 205.881Z" fill="#E4A9A9" fill-opacity="0.32"/>
<path d="M304.597 206.056C304.636 206.044 305.016 206.007 305.016 206.007L305.503 206.369L305.224 206.967L304.858 207.134L304.551 206.903L304.314 206.399L304.597 206.056Z" fill="#E4A9A9" fill-opacity="0.32"/>
<path d="M305.314 205.745L305.8 206.007L305.998 206.488L306.284 206.715L306.711 206.605L306.854 206.257V205.881L306.404 205.83H306.071L305.793 205.642L305.503 205.574L305.314 205.745Z" fill="#E4A9A9" fill-opacity="0.32"/>
<path d="M306.694 207.404C306.702 207.478 306.853 208.022 306.853 208.022H307.238L307.829 208.283L308.313 208.494L308.766 208.263L308.488 207.82L308.229 207.404L307.872 207.257L307.346 207.234L306.694 207.404Z" fill="#E4A9A9" fill-opacity="0.32"/>
<path d="M307.446 206.191L308.021 206.594C308.021 206.594 308.558 206.606 308.593 206.659C308.629 206.711 309.121 206.717 309.153 206.659C309.186 206.6 309.964 206.521 309.964 206.521L310.117 206.01L309.726 206.117L309.408 206.192L309.172 206.117L309.06 205.881L308.606 205.785L308.109 205.838L307.446 206.191Z" fill="#E4A9A9" fill-opacity="0.32"/>
<path d="M310.631 205.83L310.414 206.257L310.523 206.399L310.898 206.115L311.118 206.191L311.198 205.83L311.012 205.574L310.631 205.83Z" fill="#E4A9A9" fill-opacity="0.32"/>
<path d="M311.486 205.934H312.197L312.527 205.642L313.049 205.574L313.251 205.777L313.004 206.144H312.645L312.132 206.242L311.56 206.191L311.486 205.934Z" fill="#E4A9A9" fill-opacity="0.32"/>
<path d="M314.23 204.912L314.012 205.369L314.692 205.391L315.169 205.256L315.112 204.828L314.23 204.912Z" fill="#E4A9A9" fill-opacity="0.32"/>
<path d="M314.763 199.423L315.056 199.991L315.633 200.166L316.195 199.975L316.007 199.278L315.341 199.073L314.763 199.423Z" fill="#E4A9A9" fill-opacity="0.32"/>
<path d="M311.319 196.411L311.124 197.068L311.675 197.004L311.916 196.739V196.411H311.319Z" fill="#E4A9A9" fill-opacity="0.32"/>
<path d="M308.423 170.706L309.307 169.642L310.163 171.726L309.346 174.325L309.809 176.324L308.582 176.479L307.962 175.368L307.604 173.326L308.222 173.061L308.782 171.763L308.423 170.706Z" fill="#E4A9A9" fill-opacity="0.32"/>
<path d="M309.897 186.383L310.733 184.741L312.119 184.719L312.083 186.538L313.345 187.604L313.753 185.692L314.803 185.428L314.18 182.031L311.959 184.14C311.959 184.14 311.251 183.773 311.011 183.76C310.77 183.748 309.656 184.862 309.656 184.862L309.897 186.383Z" fill="#E4A9A9" fill-opacity="0.32"/>
<path d="M305.306 183.471C305.633 183.251 306.76 181.715 306.76 181.715L307.386 181.121L307.313 180.085L306.581 181.061L305.314 182.408L304.443 183.761L305.306 183.471Z" fill="#E4A9A9" fill-opacity="0.32"/>
<path d="M309.844 178.167L310.023 179.697L309.809 180.965L310.608 180.611L311.213 179.72L309.844 178.167Z" fill="#E4A9A9" fill-opacity="0.32"/>
<path d="M312.35 178.3L312.794 179.344L312.438 180.054L312.706 180.632L312.971 181.697L313.718 181.098L313.255 180.233L313.718 179.697L313.7 178.745L313.372 177.679L312.35 178.3Z" fill="#E4A9A9" fill-opacity="0.32"/>
<path d="M310.711 182.031L311.124 180.965L311.853 180.366L312.19 181.521L311.408 182.23L310.711 182.031Z" fill="#E4A9A9" fill-opacity="0.32"/>
<path d="M310.485 177.19L311.213 178.279L311.498 179.01H312.012L311.941 177.435H312.416L312.529 176.412H311.639L310.431 176.258L310.485 177.19Z" fill="#E4A9A9" fill-opacity="0.32"/>
<path d="M308.172 177.011L308.74 179.01L309.346 178.521L309.241 177.3L308.172 177.011Z" fill="#E4A9A9" fill-opacity="0.32"/>
<path d="M357.614 260.581L361.917 255.711L363.756 251.975L365.89 252.798L363.955 257.067L362.396 259.025L361.121 261.221L358.97 261.479L357.614 260.581Z" fill="#E4A9A9" fill-opacity="0.32"/>
<path d="M364.162 242.678L366.208 246.341L365.458 250.133L366.74 251.433V253.166L367.549 253.397L368.872 251.01L368.868 249.884L369.673 249.409L370.43 248.046L370.512 247.127L369.84 247L369.229 247.573L368.567 248.037L367.599 246.873L367.251 245.863L366.259 243.628L365.002 242.928L364.162 242.678Z" fill="#E4A9A9" fill-opacity="0.32"/>
<path d="M323.094 202.791L323.865 202.02L324.113 203.285L323.614 204.287L323.094 202.791Z" fill="#E4A9A9" fill-opacity="0.32"/>
<path d="M308.086 163.025L308.938 161.268L309.649 160.979L309.613 162.578L309.346 163.909L308.778 165.419L307.87 164.149L308.086 163.025Z" fill="#E4A9A9" fill-opacity="0.32"/>
<path d="M265.399 182.95C265.283 182.992 265.399 186.42 265.399 186.42C265.399 186.42 266.488 187.203 266.545 187.196C266.601 187.19 267.529 185.816 267.529 185.816C267.529 185.816 267.461 184.593 267.435 184.519C267.409 184.444 266.79 182.8 266.79 182.8L265.755 181.841L265.399 182.95Z" fill="#E4A9A9" fill-opacity="0.32"/>
<path d="M255.418 164.18L254.102 165.131C254.102 165.131 254.93 166.209 255.013 166.374C255.097 166.538 256.174 167.201 256.174 167.201L257.306 166.508L257.608 165.103L255.418 164.18Z" fill="#E4A9A9" fill-opacity="0.32"/>
<g opacity="0.845668">
<path d="M188.207 124.4C189.197 124.4 190 125.405 190 126.642C190 127.879 189.197 128.884 188.207 128.884C187.217 128.884 186.413 127.879 186.413 126.642C186.413 125.405 187.217 124.4 188.207 124.4Z" fill="#FF2C2C" fill-opacity="0.33"/>
</g>
<path d="M188.207 123.633C189.536 123.633 190.615 124.981 190.615 126.642C190.615 128.303 189.536 129.651 188.207 129.651C186.878 129.651 185.798 128.303 185.798 126.642C185.798 124.981 186.878 123.633 188.207 123.633Z" fill="#FF2C2C" fill-opacity="0.33"/>
<g opacity="0.845668">
<path d="M118.216 201.44C119.206 201.44 120.01 202.445 120.01 203.682C120.01 204.919 119.206 205.924 118.216 205.924C117.226 205.924 116.422 204.919 116.422 203.682C116.422 202.445 117.226 201.44 118.216 201.44Z" fill="#FF2C2C" fill-opacity="0.33"/>
</g>
<path d="M118.216 200.673C119.545 200.673 120.625 202.021 120.625 203.682C120.625 205.343 119.545 206.691 118.216 206.691C116.887 206.691 115.808 205.343 115.808 203.682C115.808 202.021 116.887 200.673 118.216 200.673Z" fill="#FF2C2C" fill-opacity="0.33"/>
<g opacity="0.845668">
<path d="M322.887 225.983C323.877 225.983 324.681 226.987 324.681 228.224C324.681 229.461 323.877 230.466 322.887 230.466C321.897 230.466 321.093 229.461 321.093 228.224C321.093 226.987 321.897 225.983 322.887 225.983Z" fill="#FF2C2C" fill-opacity="0.33"/>
</g>
<path d="M322.887 225.215C324.216 225.215 325.295 226.563 325.295 228.224C325.295 229.885 324.216 231.234 322.887 231.234C321.558 231.234 320.479 229.885 320.479 228.224C320.479 226.563 321.558 225.215 322.887 225.215Z" fill="#FF2C2C" fill-opacity="0.33"/>
<g opacity="0.845668">
<path d="M75.9889 134.539C76.9789 134.539 77.7828 135.544 77.7828 136.781C77.7828 138.018 76.9789 139.023 75.9889 139.023C74.9989 139.023 74.1951 138.018 74.1951 136.781C74.1951 135.544 74.9989 134.539 75.9889 134.539Z" fill="#FF2C2C" fill-opacity="0.33"/>
</g>
<path d="M75.9889 133.772C77.318 133.772 78.3971 135.12 78.3971 136.781C78.3971 138.442 77.318 139.79 75.9889 139.79C74.6598 139.79 73.5807 138.442 73.5807 136.781C73.5807 135.12 74.6598 133.772 75.9889 133.772Z" fill="#FF2C2C" fill-opacity="0.33"/>
<g opacity="0.845668">
<path d="M201.536 177.737C202.526 177.737 203.33 178.742 203.33 179.979C203.33 181.216 202.526 182.221 201.536 182.221C200.546 182.221 199.742 181.216 199.742 179.979C199.742 178.742 200.546 177.737 201.536 177.737Z" fill="#FF2C2C" fill-opacity="0.33"/>
</g>
<path d="M201.536 176.97C202.865 176.97 203.944 178.318 203.944 179.979C203.944 181.64 202.865 182.988 201.536 182.988C200.207 182.988 199.128 181.64 199.128 179.979C199.128 178.318 200.207 176.97 201.536 176.97Z" fill="#FF2C2C" fill-opacity="0.33"/>
<g opacity="0.845668">
<path d="M268.928 135.116C269.918 135.116 270.722 136.12 270.722 137.357C270.722 138.595 269.918 139.599 268.928 139.599C267.938 139.599 267.134 138.595 267.134 137.357C267.134 136.12 267.938 135.116 268.928 135.116Z" fill="#FF2C2C" fill-opacity="0.33"/>
</g>
<path d="M268.928 134.348C270.257 134.348 271.336 135.697 271.336 137.357C271.336 139.018 270.257 140.367 268.928 140.367C267.599 140.367 266.52 139.018 266.52 137.357C266.52 135.697 267.599 134.348 268.928 134.348Z" fill="#FF2C2C" fill-opacity="0.33"/>
</g>
</svg>
